<svg width="670.102783" height="103.617081" viewBox="0 0 670.103 103.617" fill="none" xmlns="http://www.w3.org/2000/svg" xmlns:xlink="http://www.w3.org/1999/xlink">
	<desc>
			Created with Pixso.
	</desc>
	<path d="M190.352 61.1578C190.352 63.6383 190.186 65.8844 189.854 67.8961L139.346 67.8961C139.737 73.1696 141.69 77.4078 145.206 80.611C148.741 83.8141 153.067 85.4156 158.184 85.4156C165.548 85.4156 170.743 82.3297 173.77 76.1578L188.536 76.1578C186.544 82.2516 182.921 87.2418 177.667 91.1285C172.432 94.9957 165.938 96.9293 158.184 96.9293C151.856 96.9293 146.192 95.5133 141.192 92.6813C136.192 89.8297 132.276 85.8258 129.444 80.6696C126.612 75.5133 125.196 69.5367 125.196 62.7399C125.196 55.9235 126.573 49.9371 129.327 44.7809C132.081 39.6246 135.958 35.65 140.958 32.8571C145.958 30.0446 151.7 28.6383 158.184 28.6383C164.415 28.6383 169.971 30.0055 174.854 32.7399C179.737 35.4547 183.536 39.2731 186.251 44.1949C188.985 49.1168 190.352 54.7711 190.352 61.1578ZM176.055 56.8512C175.977 51.8121 174.18 47.7692 170.665 44.7223C167.149 41.6754 162.784 40.152 157.569 40.152C152.862 40.152 148.829 41.6559 145.469 44.6637C142.11 47.6715 140.108 51.734 139.464 56.8512L176.055 56.8512ZM232.107 62.359L253.464 95.8453L237.996 95.8453L223.699 73.4039L210.252 95.8453L195.984 95.8453L217.341 63.3258L195.984 29.7223L211.453 29.7223L225.75 52.1637L239.197 29.7223L253.464 29.7223L232.107 62.359ZM279.624 40.8844L279.624 77.4762C279.624 79.9567 280.2 81.7438 281.352 82.8375C282.524 83.9117 284.506 84.4489 287.299 84.4489L295.708 84.4489L295.708 95.8453L284.897 95.8453C278.745 95.8453 274.028 94.4098 270.747 91.5387C267.465 88.6481 265.825 83.9606 265.825 77.4762L265.825 40.8844L258.032 40.8844L258.032 29.7223L265.825 29.7223L265.825 13.2867L279.624 13.2867L279.624 29.7223L295.708 29.7223L295.708 40.8844L279.624 40.8844ZM397.836 62.4762C397.836 55.8356 399.213 49.9567 401.966 44.8395C404.72 39.7223 408.48 35.7477 413.246 32.9156C418.011 30.0641 423.314 28.6383 429.154 28.6383C433.47 28.6383 437.728 29.5856 441.927 31.4801C446.127 33.3551 449.466 35.8453 451.947 38.9508L451.947 7.04651L465.746 7.04651L465.746 95.8453L451.947 95.8453L451.947 85.8844C449.701 89.0875 446.595 91.734 442.631 93.8239C438.685 95.8942 434.154 96.9293 429.037 96.9293C423.275 96.9293 418.011 95.4742 413.246 92.5641C408.48 89.6344 404.72 85.5524 401.966 80.318C399.213 75.0641 397.836 69.1168 397.836 62.4762ZM451.947 62.7399C451.947 58.1696 451 54.2047 449.105 50.8453C447.23 47.486 444.769 44.9274 441.722 43.1696C438.695 41.4117 435.424 40.5328 431.908 40.5328C428.392 40.5328 425.111 41.3922 422.064 43.111C419.017 44.8297 416.556 47.3492 414.681 50.6696C412.806 53.9899 411.869 57.9254 411.869 62.4762C411.869 67.0465 412.806 71.0504 414.681 74.4879C416.556 77.9254 419.037 80.5426 422.123 82.3395C425.209 84.1364 428.47 85.0348 431.908 85.0348C435.424 85.0348 438.695 84.1559 441.722 82.3981C444.769 80.6403 447.23 78.0621 449.105 74.6637C451 71.2653 451.947 67.2906 451.947 62.7399ZM497.418 29.7223L497.418 95.8453L483.737 95.8453L483.737 29.7223L497.418 29.7223ZM531.383 40.8844L531.383 77.4762C531.383 79.9567 531.96 81.7438 533.112 82.8375C534.284 83.9117 536.266 84.4489 539.059 84.4489L547.467 84.4489L547.467 95.8453L536.657 95.8453C530.505 95.8453 525.788 94.4098 522.506 91.5387C519.225 88.6481 517.585 83.9606 517.585 77.4762L517.585 40.8844L509.792 40.8844L509.792 29.7223L517.585 29.7223L517.585 13.2867L531.383 13.2867L531.383 29.7223L547.467 29.7223L547.467 40.8844L531.383 40.8844ZM588.738 96.9293C582.508 96.9293 576.873 95.5133 571.834 92.6813C566.795 89.8297 562.83 85.8258 559.939 80.6696C557.068 75.5133 555.633 69.5367 555.633 62.7399C555.633 56.0016 557.107 50.0348 560.057 44.8395C563.025 39.6442 567.068 35.65 572.185 32.8571C577.303 30.0446 583.025 28.6383 589.353 28.6383C595.662 28.6383 601.375 30.0446 606.492 32.8571C611.609 35.65 615.652 39.6442 618.621 44.8395C621.59 50.0348 623.074 56.0016 623.074 62.7399C623.074 69.4586 621.551 75.4156 618.504 80.611C615.457 85.8063 611.316 89.8297 606.082 92.6813C600.848 95.5133 595.066 96.9293 588.738 96.9293ZM588.738 85.0348C592.254 85.0348 595.555 84.1949 598.641 82.5153C601.726 80.8356 604.226 78.316 606.141 74.9567C608.055 71.5973 609.012 67.525 609.012 62.7399C609.012 57.9352 608.094 53.8727 606.258 50.5524C604.422 47.2321 601.98 44.7321 598.933 43.0524C595.906 41.3727 592.625 40.5328 589.09 40.5328C585.574 40.5328 582.312 41.3727 579.305 43.0524C576.316 44.7321 573.943 47.2321 572.185 50.5524C570.428 53.8727 569.549 57.9352 569.549 62.7399C569.549 69.8492 571.365 75.3473 574.998 79.234C578.65 83.1012 583.23 85.0348 588.738 85.0348ZM650.298 39.3317C652.31 35.9723 654.976 33.3551 658.296 31.4801C661.616 29.5856 665.552 28.6383 670.103 28.6383L670.103 42.818L666.616 42.818C661.265 42.818 657.202 44.1754 654.429 46.8903C651.675 49.6051 650.298 54.3219 650.298 61.0406L650.298 95.8453L636.616 95.8453L636.616 29.7223L650.298 29.7223L650.298 39.3317Z" fill-rule="evenodd" fill="#000000"/>
	<path d="M481.237 7.04649L481.237 19.0458C481.237 18.8766 495.676 18.9753 500.237 19.0458L500.237 7.04649L481.237 7.04649Z" fill-rule="evenodd" fill="#530AB5"/>
	<path d="M123.434 15.4371L123.434 26.5992L101.256 26.5992L101.256 98.8453L87.5746 98.8453L87.5746 26.5992L65.2504 26.5992L65.2504 15.4371L123.434 15.4371Z" fill-rule="evenodd" fill="#530AB5"/>
	<path d="M353.178 23.4821L353.178 47.9742L381.977 47.9742L381.977 59.1364L353.178 59.1364L353.178 84.6832L385.581 84.6832L385.581 95.8453L339.497 95.8453L339.497 12.3199L385.581 12.3199L385.581 23.4821L353.178 23.4821Z" fill-rule="evenodd" fill="#530AB5"/>
	<path d="M49.2504 0L49.2188 79.4765C49.2188 86.9179 46.9531 92.8065 42.4219 97.1425C37.9102 101.459 31.9727 103.617 24.6094 103.617C17.2461 103.617 11.2988 101.459 6.76758 97.1425C2.25586 92.8065 0 86.9179 0 79.4765L13.7988 79.4765C13.877 83.1679 14.8145 86.0975 16.6113 88.2655C18.4277 90.414 21.0938 91.4882 24.6094 91.4882C28.125 91.4882 30.8008 90.3944 32.6367 88.2069C34.4922 85.9999 35.4199 83.0897 35.4199 79.4765L35.6387 0L49.2504 0Z" fill-rule="evenodd" fill="#530AB5"/>
	<defs/>
</svg>
