<svg width="118.000000" height="112.000000" viewBox="0 0 118 112" fill="none" xmlns="http://www.w3.org/2000/svg" xmlns:xlink="http://www.w3.org/1999/xlink">
	<desc>
			Created with Pixso.
	</desc>
	<path d="M20 35L42 35L42 45L20 45L20 35Z" fill-rule="evenodd" fill="#530AB5"/>
	<path d="M47 35L69 35L69 45L47 45L47 35Z" fill-rule="evenodd" fill="#050505"/>
	<path d="M74 35L83 35L83 45L74 45L74 35Z" fill-rule="evenodd" fill="#530AB5"/>
	<path d="M20 51L56 51L56 61L20 61L20 51Z" fill-rule="evenodd" fill="#530AB5"/>
	<path d="M61 51L83 51L83 61L61 61L61 51Z" fill-rule="evenodd" fill="#530AB5"/>
	<path d="M20 67L42 67L42 77L20 77L20 67Z" fill-rule="evenodd" fill="#050505"/>
	<path d="M47 67L69 67L69 77L47 77L47 67Z" fill-rule="evenodd" fill="#530AB5"/>
	<path d="M74 67L83 67L83 77L74 77L74 67Z" fill-rule="evenodd" fill="#050505"/>
	<path d="M0 15L83 15L83 25L10 25L10 87L83 87L83 97L0 97L0 15Z" fill-rule="evenodd" fill="#050505"/>
	<path d="M118 15L103 15L103 25L108 25L108 87L103 87L103 97L118 97L118 15Z" fill-rule="evenodd" fill="#050505"/>
	<path d="M78 10L78 0L109 0L109 10L98 10L98 102L109 102L109 112L78 112L78 102L88 102L88 10L78 10Z" fill-rule="evenodd" fill="#050505"/>
	<defs/>
</svg>
